<svg xmlns="http://www.w3.org/2000/svg" viewBox="0 0 128.36 48.1"><defs><style>.cls-1{fill:#fff;}</style></defs><g id="레이어_2" data-name="레이어 2"><g id="레이어_1-2" data-name="레이어 1"><path class="cls-1" d="M10.54,18.55V8H0V18.55ZM0,33.33H10.54V22.79H0ZM10.54,48.1V37.57H0V48.1ZM25.31,33.33V22.79H14.78V33.33Zm0,14.77V37.57H14.78V48.1Zm14.77,0V37.57H29.55V48.1ZM21.43,16.69l9.68-4.16L27,2.85,17.27,7ZM43.16,32.14l3.55-9.92-9.92-3.55-3.55,9.92ZM37.32,12l10.43-1.52L46.23,0,35.8,1.52Z"/><path class="cls-1" d="M115.9,31.92l-1.37,2.48h-1.15l1.08-2.48Z"/><path class="cls-1" d="M60.09,26a1,1,0,0,1-.74-.3,1,1,0,0,1-.3-.74V11.43a1,1,0,0,1,.3-.75,1,1,0,0,1,.74-.29h4a5.26,5.26,0,0,1,2.65.66,4.75,4.75,0,0,1,1.81,1.83,5.42,5.42,0,0,1,.64,2.68,5.16,5.16,0,0,1-.64,2.59,4.69,4.69,0,0,1-1.81,1.78,5.46,5.46,0,0,1-2.65.63H61.13v4.37a1,1,0,0,1-.29.74A1,1,0,0,1,60.09,26Zm1-7.32h2.95a3.13,3.13,0,0,0,1.61-.4,2.91,2.91,0,0,0,1.1-1.1,3.08,3.08,0,0,0,.4-1.59,3.43,3.43,0,0,0-.4-1.69,3,3,0,0,0-1.1-1.14,3,3,0,0,0-1.61-.42H61.13Z"/><path class="cls-1" d="M72.51,26a1,1,0,0,1-1-1V11.43a1,1,0,0,1,.3-.75,1,1,0,0,1,.73-.29H76.1a5.48,5.48,0,0,1,2.66.63,4.54,4.54,0,0,1,1.8,1.73,4.93,4.93,0,0,1,.65,2.55,4.53,4.53,0,0,1-.65,2.41,4.45,4.45,0,0,1-1.8,1.66,5.7,5.7,0,0,1-2.66.6H73.55v5a1,1,0,0,1-1,1Zm1-7.92H76.1a3.48,3.48,0,0,0,1.62-.35,2.68,2.68,0,0,0,1.1-1,2.62,2.62,0,0,0,.4-1.42,3.09,3.09,0,0,0-.4-1.56,2.78,2.78,0,0,0-1.1-1.05,3.26,3.26,0,0,0-1.62-.38H73.55ZM80.79,26a1.13,1.13,0,0,1-.51-.12,1.08,1.08,0,0,1-.39-.38L76.3,19.69l2-.58,3.27,5.26a1.06,1.06,0,0,1,.1,1.09A.92.92,0,0,1,80.79,26Z"/><path class="cls-1" d="M91.28,26.17a8.53,8.53,0,0,1-3.21-.59,7.27,7.27,0,0,1-2.5-1.65,7.64,7.64,0,0,1-1.63-2.54,9.2,9.2,0,0,1,0-6.43,7.55,7.55,0,0,1,1.63-2.52,7.29,7.29,0,0,1,2.5-1.66,8.53,8.53,0,0,1,3.21-.59,8.44,8.44,0,0,1,3.2.59A7.34,7.34,0,0,1,98.62,15a8.53,8.53,0,0,1,.58,3.21,8.58,8.58,0,0,1-.58,3.22A7.49,7.49,0,0,1,97,23.93a7.41,7.41,0,0,1-2.51,1.65A8.44,8.44,0,0,1,91.28,26.17Zm0-1.88a5.86,5.86,0,0,0,2.39-.47,5.68,5.68,0,0,0,3.11-3.24,7,7,0,0,0,0-4.82,5.78,5.78,0,0,0-1.23-1.95,5.56,5.56,0,0,0-1.88-1.28,6.41,6.41,0,0,0-4.77,0A5.46,5.46,0,0,0,87,13.81a5.91,5.91,0,0,0-1.22,1.95,6.82,6.82,0,0,0,0,4.82,5.91,5.91,0,0,0,1.22,2,5.63,5.63,0,0,0,1.88,1.29A5.81,5.81,0,0,0,91.28,24.29Z"/><path class="cls-1" d="M64,48.1a7.39,7.39,0,0,1-2.44-.4,6.13,6.13,0,0,1-2-1.11,4.45,4.45,0,0,1-1.26-1.66.8.8,0,0,1,0-.78A1,1,0,0,1,59,43.7a.94.94,0,0,1,.71.11,1.2,1.2,0,0,1,.53.56,2.5,2.5,0,0,0,.79.92,4.32,4.32,0,0,0,1.32.68,5.26,5.26,0,0,0,1.64.26,5,5,0,0,0,1.76-.3,3.14,3.14,0,0,0,1.31-.87,2.07,2.07,0,0,0,.5-1.4,2.64,2.64,0,0,0-.83-1.9,4.43,4.43,0,0,0-2.72-1,6.82,6.82,0,0,1-3.89-1.45,3.81,3.81,0,0,1-1.42-3A3.47,3.47,0,0,1,59.45,34a4.49,4.49,0,0,1,2-1.39,7.87,7.87,0,0,1,2.82-.48,5.93,5.93,0,0,1,2.12.34,4.83,4.83,0,0,1,1.59.93,6,6,0,0,1,1.17,1.42,1.19,1.19,0,0,1,.23.83.81.81,0,0,1-.39.61.89.89,0,0,1-.81.09,1.07,1.07,0,0,1-.66-.51,3.45,3.45,0,0,0-.78-1,3.3,3.3,0,0,0-1.08-.63A4.2,4.2,0,0,0,64.22,34a4.84,4.84,0,0,0-2.48.55,1.88,1.88,0,0,0-1,1.75,2.25,2.25,0,0,0,.31,1.14,2.44,2.44,0,0,0,1.13.95,7.42,7.42,0,0,0,2.39.56,6.33,6.33,0,0,1,3.7,1.44A4.13,4.13,0,0,1,69.6,43.6a3.91,3.91,0,0,1-.47,2A4.33,4.33,0,0,1,67.88,47a5.51,5.51,0,0,1-1.8.84A7.57,7.57,0,0,1,64,48.1Z"/><path class="cls-1" d="M73.81,47.9a1,1,0,0,1-.74-.3,1,1,0,0,1-.3-.73V33.36a1,1,0,0,1,.3-.74,1,1,0,0,1,.74-.29h4a5.34,5.34,0,0,1,2.65.65,4.68,4.68,0,0,1,1.81,1.83,5.45,5.45,0,0,1,.65,2.68,5.13,5.13,0,0,1-.65,2.59,4.56,4.56,0,0,1-1.81,1.78,5.33,5.33,0,0,1-2.65.64h-3v4.37a1,1,0,0,1-.29.73A1,1,0,0,1,73.81,47.9Zm1-7.32h3a3.29,3.29,0,0,0,1.62-.39,3,3,0,0,0,1.09-1.1,3.14,3.14,0,0,0,.4-1.6,3.37,3.37,0,0,0-.4-1.68,2.94,2.94,0,0,0-1.09-1.15,3.1,3.1,0,0,0-1.62-.42h-3Z"/><path class="cls-1" d="M86.24,47.9a1,1,0,0,1-.74-.3,1,1,0,0,1-.3-.73V33.36a1,1,0,0,1,1-1h9a1,1,0,0,1,.74.27.91.91,0,0,1,.28.7A.87.87,0,0,1,96,34a1.06,1.06,0,0,1-.74.26h-8v4.85H93a1,1,0,0,1,.74.27,1,1,0,0,1,0,1.37A1,1,0,0,1,93,41H87.27v5h8a1.06,1.06,0,0,1,.74.26.87.87,0,0,1,.28.68.91.91,0,0,1-.28.7,1,1,0,0,1-.74.27Z"/><path class="cls-1" d="M106.14,48.1a7.48,7.48,0,0,1-3-.61,7.36,7.36,0,0,1-2.45-1.69A7.77,7.77,0,0,1,99,43.26,8.65,8.65,0,0,1,99,37a7.94,7.94,0,0,1,1.64-2.53,7.79,7.79,0,0,1,2.44-1.71,7.42,7.42,0,0,1,3-.61,7.64,7.64,0,0,1,2.64.4A7.55,7.55,0,0,1,111,33.84a1.47,1.47,0,0,1,.25.25.76.76,0,0,1,.12.26,1.42,1.42,0,0,1,0,.31.83.83,0,0,1-.27.63,1,1,0,0,1-1.39,0,5.94,5.94,0,0,0-1.52-1,5.49,5.49,0,0,0-2.09-.34,5.2,5.2,0,0,0-2.21.48,5.94,5.94,0,0,0-1.83,1.32,6.08,6.08,0,0,0-1.22,1.94,6.63,6.63,0,0,0,0,4.75,6.08,6.08,0,0,0,1.22,1.94,5.75,5.75,0,0,0,1.83,1.31,5.35,5.35,0,0,0,2.21.47,5.41,5.41,0,0,0,1.93-.35,7.52,7.52,0,0,0,1.74-1,1.07,1.07,0,0,1,.71-.23.94.94,0,0,1,.59.28,1,1,0,0,1,.24.69,1.09,1.09,0,0,1-.08.39,1.15,1.15,0,0,1-.24.35,8,8,0,0,1-2.31,1.29A7.36,7.36,0,0,1,106.14,48.1Z"/><path class="cls-1" d="M122.76,48.1a7.3,7.3,0,0,1-2.44-.4,6.13,6.13,0,0,1-2-1.11,4.35,4.35,0,0,1-1.26-1.66.8.8,0,0,1,0-.78,1,1,0,0,1,.71-.45,1,1,0,0,1,.71.11,1.2,1.2,0,0,1,.53.56,2.56,2.56,0,0,0,.78.92,4.5,4.5,0,0,0,1.33.68,5.22,5.22,0,0,0,1.64.26,5,5,0,0,0,1.76-.3,3.21,3.21,0,0,0,1.31-.87,2.06,2.06,0,0,0,.49-1.4,2.63,2.63,0,0,0-.82-1.9,4.43,4.43,0,0,0-2.73-1,6.82,6.82,0,0,1-3.88-1.45,3.81,3.81,0,0,1-1.42-3,3.47,3.47,0,0,1,.74-2.24,4.51,4.51,0,0,1,2-1.39,8,8,0,0,1,2.82-.48,6,6,0,0,1,2.13.34,4.89,4.89,0,0,1,1.58.93,5.84,5.84,0,0,1,1.18,1.42,1.24,1.24,0,0,1,.23.83.81.81,0,0,1-.39.61.91.91,0,0,1-.82.09,1.13,1.13,0,0,1-.66-.51,3.6,3.6,0,0,0-.77-1,3.41,3.41,0,0,0-1.08-.63A4.26,4.26,0,0,0,123,34a4.83,4.83,0,0,0-2.47.55,1.89,1.89,0,0,0-1,1.75,2.35,2.35,0,0,0,.31,1.14,2.52,2.52,0,0,0,1.14.95,7.42,7.42,0,0,0,2.38.56,6.28,6.28,0,0,1,3.7,1.44,4.1,4.1,0,0,1,1.33,3.19,4,4,0,0,1-.47,2A4.25,4.25,0,0,1,126.63,47a5.37,5.37,0,0,1-1.79.84A7.62,7.62,0,0,1,122.76,48.1Z"/></g></g></svg>